<svg width="29" height="31" viewBox="0 0 29 31" fill="none" xmlns="http://www.w3.org/2000/svg">
<path d="M15.3373 26.9828H4.9922C4.3336 26.9828 3.80005 26.4316 3.80005 25.7518V5.9111C3.80005 5.23117 4.33369 4.68018 4.9922 4.68018H24.208C24.8663 4.68018 25.4 5.23117 25.4 5.9111V25.7518C25.4 26.4317 24.8662 26.9828 24.208 26.9828H18.7037V18.346H21.5114L21.9318 14.9801H18.7037V12.8312C18.7037 11.8567 18.9658 11.1926 20.3192 11.1926L22.0454 11.1918V8.18127C21.7469 8.14025 20.7222 8.04861 19.53 8.04861C17.0412 8.04861 15.3373 9.61721 15.3373 12.4978V14.9801H12.5225V18.346H15.3373V26.9828V26.9828Z" fill="white"/>
</svg>
