<svg width="29" height="31" viewBox="0 0 29 31" fill="none" xmlns="http://www.w3.org/2000/svg">
<path fill-rule="evenodd" clip-rule="evenodd" d="M14.3694 17.7971C13.2962 17.7971 10.6604 17.8006 10.6604 17.8006V15.1017H17.2491C17.708 18.3674 16.3238 23.2659 10.6604 23.2659C6.87153 23.2659 3.80005 20.2148 3.80005 16.4512C3.80005 12.6875 6.87153 9.63647 10.6604 9.63647C12.4383 9.63647 14.0581 10.3082 15.2769 11.4102C14.3325 12.2961 14.0297 12.6339 13.7724 12.9208C13.6386 13.0701 13.5171 13.2056 13.324 13.3974C12.619 12.8183 11.8505 12.4028 10.6604 12.4028C8.40961 12.4028 6.65288 14.2153 6.65288 16.4512C6.65288 18.687 8.40961 20.4995 10.6604 20.4995C12.8845 20.4995 13.7882 19.5467 14.3694 17.7971ZM23.0225 12.8749V15.2365H25.3999V16.9233H23.0225V19.3523H21.3244V16.9233H18.8792V15.2365H21.3244V12.8749H23.0225Z" fill="white"/>
</svg>
