<svg width="22" height="23" viewBox="0 0 22 23" fill="none" xmlns="http://www.w3.org/2000/svg">
<path fill-rule="evenodd" clip-rule="evenodd" d="M11 0.680176C8.06685 0.680176 7.69906 0.693013 6.54713 0.747282C5.39759 0.801418 4.6125 0.989944 3.92554 1.26563C3.21535 1.55056 2.61306 1.93187 2.01261 2.5518C1.4122 3.17178 1.04292 3.79366 0.766959 4.52696C0.49996 5.23627 0.317374 6.0469 0.264943 7.23383C0.212384 8.42324 0.199951 8.80299 0.199951 11.8315C0.199951 14.86 0.212384 15.2398 0.264943 16.4292C0.317374 17.6161 0.49996 18.4267 0.766959 19.1361C1.04292 19.8694 1.4122 20.4912 2.01261 21.1112C2.61306 21.7312 3.21535 22.1125 3.92554 22.3974C4.6125 22.6731 5.39759 22.8616 6.54713 22.9157C7.69906 22.97 8.06685 22.9828 11 22.9828C13.9331 22.9828 14.3008 22.97 15.4528 22.9157C16.6023 22.8616 17.3874 22.6731 18.0744 22.3974C18.7846 22.1125 19.3868 21.7312 19.9873 21.1112C20.5877 20.4912 20.957 19.8694 21.233 19.1361C21.4999 18.4267 21.6825 17.6161 21.735 16.4292C21.7875 15.2398 21.8 14.86 21.8 11.8315C21.8 8.80299 21.7875 8.42324 21.735 7.23383C21.6825 6.0469 21.4999 5.23627 21.233 4.52696C20.957 3.79366 20.5877 3.17178 19.9873 2.5518C19.3868 1.93187 18.7846 1.55056 18.0744 1.26563C17.3874 0.989944 16.6023 0.801418 15.4528 0.747282C14.3008 0.693013 13.9331 0.680176 11 0.680176ZM11.0001 2.68932C13.8838 2.68932 14.2254 2.7007 15.3642 2.75435C16.4172 2.80392 16.989 2.98559 17.3696 3.1383C17.8737 3.3406 18.2335 3.58224 18.6114 3.97248C18.9893 4.36268 19.2234 4.73416 19.4193 5.25467C19.5672 5.64761 19.7431 6.23807 19.7911 7.32531C19.8431 8.50118 19.8541 8.85388 19.8541 11.8314C19.8541 14.8089 19.8431 15.1616 19.7911 16.3375C19.7431 17.4247 19.5672 18.0152 19.4193 18.4081C19.2234 18.9287 18.9893 19.3001 18.6114 19.6903C18.2335 20.0806 17.8737 20.3222 17.3696 20.5245C16.989 20.6772 16.4172 20.8589 15.3642 20.9085C14.2255 20.9621 13.884 20.9735 11.0001 20.9735C8.11612 20.9735 7.77461 20.9621 6.63593 20.9085C5.58294 20.8589 5.01109 20.6772 4.63052 20.5245C4.12641 20.3222 3.76664 20.0806 3.38873 19.6903C3.01083 19.3001 2.77675 18.9287 2.58083 18.4081C2.43293 18.0152 2.25699 17.4247 2.20897 16.3375C2.15701 15.1616 2.146 14.8089 2.146 11.8314C2.146 8.85388 2.15701 8.50118 2.20897 7.32531C2.25699 6.23807 2.43293 5.64761 2.58083 5.25467C2.77675 4.73416 3.01078 4.36268 3.38873 3.97248C3.76664 3.58224 4.12641 3.3406 4.63052 3.1383C5.01109 2.98559 5.58294 2.80392 6.63593 2.75435C7.77474 2.7007 8.11634 2.68932 11.0001 2.68932ZM5.4541 11.8317C5.4541 8.66905 7.93708 6.10529 11.0001 6.10529C14.063 6.10529 16.546 8.66905 16.546 11.8317C16.546 14.9943 14.063 17.558 11.0001 17.558C7.93708 17.558 5.4541 14.9943 5.4541 11.8317ZM10.9999 15.5486C9.01167 15.5486 7.3999 13.8844 7.3999 11.8315C7.3999 9.77859 9.01167 8.11439 10.9999 8.11439C12.9881 8.11439 14.5999 9.77859 14.5999 11.8315C14.5999 13.8844 12.9881 15.5486 10.9999 15.5486ZM16.765 7.21694C17.4807 7.21694 18.061 6.61785 18.061 5.8788C18.061 5.13975 17.4807 4.54062 16.765 4.54062C16.0492 4.54062 15.469 5.13975 15.469 5.8788C15.469 6.61785 16.0492 7.21694 16.765 7.21694Z" fill="white"/>
</svg>
