<svg width="22" height="21" viewBox="0 0 22 21" fill="none" xmlns="http://www.w3.org/2000/svg">
<path fill-rule="evenodd" clip-rule="evenodd" d="M2.54252 5.59194H2.51204C0.988053 5.59194 0 4.56244 0 3.25747C0 1.92711 1.01726 0.919189 2.57173 0.919189C4.12493 0.919189 5.07996 1.92457 5.11044 3.25366C5.11044 4.55863 4.12493 5.59194 2.54252 5.59194ZM21.6001 20.744H16.8262V13.7748C16.8262 11.9507 16.0795 10.7054 14.4374 10.7054C13.1814 10.7054 12.4829 11.5457 12.1578 12.3556C12.0504 12.6116 12.0523 12.9561 12.0543 13.3112C12.0546 13.3594 12.0549 13.4078 12.0549 13.4562V20.744H7.32544C7.32544 20.744 7.3864 8.39882 7.32544 7.27665H12.0549V9.39024C12.3343 8.4661 13.8456 7.14716 16.2573 7.14716C19.2494 7.14716 21.6001 9.08431 21.6001 13.2556V20.744ZM4.75494 7.27648H0.544922V20.7438H4.75494V7.27648Z" fill="white"/>
</svg>
