<svg width="30" height="31" viewBox="0 0 30 31" fill="none" xmlns="http://www.w3.org/2000/svg">
<path d="M15.2005 4.68018C9.23631 4.68018 4.3999 9.67261 4.3999 15.8322C4.3999 20.3971 7.05942 24.3207 10.8658 26.0452C10.8353 25.2676 10.8607 24.3312 11.0525 23.4841C11.2608 22.5792 12.442 17.4084 12.442 17.4084C12.442 17.4084 12.0978 16.6964 12.0978 15.6433C12.0978 13.991 13.0262 12.757 14.1807 12.757C15.1624 12.757 15.6374 13.5189 15.6374 14.4316C15.6374 15.4506 15.0075 16.9757 14.6836 18.388C14.4131 19.5722 15.2577 20.5361 16.388 20.5361C18.4341 20.5361 19.8121 17.8228 19.8121 14.6073C19.8121 12.1642 18.2182 10.3349 15.3187 10.3349C12.0432 10.3349 10.0022 12.8566 10.0022 15.6735C10.0022 16.6465 10.279 17.3311 10.7134 17.8609C10.9141 18.1061 10.9407 18.2031 10.8683 18.4838C10.8175 18.687 10.6982 19.1827 10.6486 19.3781C10.5762 19.6601 10.3552 19.7624 10.1088 19.6575C8.59874 19.0214 7.89639 17.3153 7.89639 15.3968C7.89639 12.2298 10.4835 8.42942 15.6146 8.42942C19.7385 8.42942 22.4526 11.5125 22.4526 14.8185C22.4526 19.1932 20.0979 22.4612 16.6243 22.4612C15.4596 22.4612 14.3623 21.8108 13.9864 21.0724C13.9864 21.0724 13.3589 23.6414 13.2269 24.1371C12.9982 24.9961 12.5499 25.8564 12.1397 26.5252C13.1113 26.8215 14.1375 26.9828 15.2005 26.9828C21.1648 26.9828 25.9999 21.9904 25.9999 15.8322C25.9999 9.67261 21.1648 4.68018 15.2005 4.68018" fill="white"/>
</svg>
