<svg width="29" height="30" viewBox="0 0 29 30" fill="none" xmlns="http://www.w3.org/2000/svg">
<path fill-rule="evenodd" clip-rule="evenodd" d="M6.19995 11.2546C6.19995 6.45948 9.95595 2.5813 14.6 2.5813C19.2439 2.5813 23 6.45948 23 11.2546C23 16.4213 17.696 23.5458 15.524 26.2593C15.044 26.854 14.168 26.854 13.688 26.2593C11.504 23.5458 6.19995 16.4213 6.19995 11.2546ZM11.6 11.2546C11.6 12.9644 12.944 14.3522 14.6 14.3522C16.256 14.3522 17.6 12.9644 17.6 11.2546C17.6 9.54469 16.256 8.15697 14.6 8.15697C12.944 8.15697 11.6 9.54469 11.6 11.2546Z" fill="white"/>
</svg>
