<svg width="29" height="31" viewBox="0 0 29 31" fill="none" xmlns="http://www.w3.org/2000/svg">
<path fill-rule="evenodd" clip-rule="evenodd" d="M23.276 19.5725L20.228 19.2132C19.496 19.1264 18.776 19.3866 18.26 19.9194L16.052 22.1992C12.656 20.415 9.87195 17.5529 8.14395 14.034L10.364 11.7418C10.88 11.209 11.132 10.4656 11.048 9.70976L10.7 6.58738C10.556 5.33596 9.53595 4.39429 8.31195 4.39429H6.23595C4.87995 4.39429 3.75195 5.55898 3.83595 6.95909C4.47195 17.5405 12.668 25.9907 22.904 26.6474C24.26 26.7341 25.388 25.5694 25.388 24.1693V22.0258C25.4 20.7744 24.488 19.7212 23.276 19.5725Z" fill="white"/>
</svg>
