<svg width="22" height="23" viewBox="0 0 22 23" fill="none" xmlns="http://www.w3.org/2000/svg">
<path fill-rule="evenodd" clip-rule="evenodd" d="M21.6 22.9828H17.486C17.486 13.0271 9.64218 4.92804 0.000192682 4.92804V0.680176C11.9102 0.680176 21.6 10.6853 21.6 22.9828ZM0.000244141 19.7969C0.000244141 18.0374 1.38186 16.6108 3.08593 16.6108C4.78999 16.6108 6.17161 18.0374 6.17161 19.7969C6.17161 21.5565 4.78999 22.983 3.08593 22.983C1.38186 22.983 0.000244141 21.5565 0.000244141 19.7969ZM10.2861 22.9829H14.4001C14.4001 14.7842 7.94023 8.11414 0 8.11414V12.3628C5.67148 12.3628 10.2861 17.1268 10.2861 22.9829Z" fill="white"/>
</svg>
