<svg width="22" height="19" viewBox="0 0 22 19" fill="none" xmlns="http://www.w3.org/2000/svg">
<path d="M21.9999 2.3584C21.2062 2.73159 20.3517 2.98396 19.4554 3.09672C20.3707 2.5168 21.0731 1.59726 21.404 0.501858C20.547 1.03882 19.5999 1.42946 18.5882 1.63887C17.7818 0.727382 16.6294 0.158203 15.3539 0.158203C12.9083 0.158203 10.9242 2.25906 10.9242 4.8499C10.9242 5.21772 10.9622 5.5748 11.0383 5.91845C7.35521 5.72246 4.09055 3.85652 1.90355 1.01466C1.52193 1.71002 1.30386 2.5168 1.30386 3.37594C1.30386 5.00293 2.08611 6.4393 3.27534 7.28099C2.55014 7.25817 1.86551 7.04473 1.2671 6.6957V6.75342C1.2671 9.02745 2.79483 10.9243 4.82336 11.3538C4.45188 11.4639 4.06012 11.519 3.65569 11.519C3.37043 11.519 3.0915 11.4908 2.82146 11.4357C3.38564 13.299 5.02114 14.6561 6.96092 14.6924C5.44459 15.9516 3.53271 16.702 1.45727 16.702C1.09974 16.702 0.746019 16.6805 0.399902 16.6375C2.36123 17.9665 4.6915 18.7438 7.19293 18.7438C15.3451 18.7438 19.8015 11.5955 19.8015 5.39491C19.8015 5.19087 19.7977 4.98682 19.7901 4.78681C20.656 4.125 21.4078 3.29942 21.9999 2.3584" fill="white"/>
</svg>
