<svg width="23" height="17" viewBox="0 0 23 17" fill="none" xmlns="http://www.w3.org/2000/svg">
<path fill-rule="evenodd" clip-rule="evenodd" d="M21.1255 1.59906C21.7728 2.29397 21.9841 3.87202 21.9841 3.87202C21.9841 3.87202 22.2001 5.72559 22.2001 7.57845V9.31608C22.2001 11.1697 21.9841 13.0225 21.9841 13.0225C21.9841 13.0225 21.7728 14.6006 21.1255 15.2955C20.3854 16.1175 19.5648 16.2025 19.101 16.2505C19.0499 16.2558 19.0033 16.2606 18.9614 16.2659C15.9388 16.4978 11.4001 16.5049 11.4001 16.5049C11.4001 16.5049 5.7841 16.4506 4.0561 16.2745C3.97423 16.2583 3.87498 16.2457 3.76259 16.2314C3.21523 16.1618 2.35612 16.0525 1.67402 15.2955C1.0267 14.6006 0.816098 13.0225 0.816098 13.0225C0.816098 13.0225 0.600098 11.1697 0.600098 9.31608V7.57845C0.600098 5.72559 0.816098 3.87202 0.816098 3.87202C0.816098 3.87202 1.0267 2.29397 1.67402 1.59906C2.41575 0.775843 3.23715 0.691825 3.70103 0.644376C3.75132 0.639231 3.79742 0.634517 3.83875 0.629337C6.8614 0.397461 11.3954 0.397461 11.3954 0.397461H11.4048C11.4048 0.397461 15.9388 0.397461 18.9614 0.629337C19.0028 0.634525 19.0489 0.639246 19.0992 0.644399C19.5628 0.691852 20.3845 0.775977 21.1255 1.59906ZM9.16895 4.98685L9.16962 11.4214L15.005 8.21522L9.16895 4.98685Z" fill="white"/>
</svg>
